<!DOCTYPE svg PUBLIC "-//W3C//DTD SVG 20010904//EN" "http://www.w3.org/TR/2001/REC-SVG-20010904/DTD/svg10.dtd">
<svg version="1.0" xmlns="http://www.w3.org/2000/svg" width="512px" height="512px" viewBox="0 0 640 640" preserveAspectRatio="xMidYMid meet">
<g id="layer101" fill="#000000" stroke="none">
<path d="M362 477 c-51 -17 -89 -34 -85 -37 15 -13 76 -30 109 -30 19 0 34 -4 34 -8 0 -4 -55 -26 -122 -48 l-123 -40 -3 -147 c-2 -114 0 -147 10 -147 7 0 109 32 225 71 l213 71 0 149 c0 82 -1 149 -3 149 -2 0 -37 -11 -77 -25 -69 -24 -96 -26 -74 -6 5 5 26 14 47 21 20 6 37 15 37 19 0 7 -79 42 -90 40 -3 0 -47 -15 -98 -32z"/>
</g>
<g id="layer102" fill="#091b13" stroke="none">
<path d="M362 477 c-51 -17 -89 -34 -85 -37 15 -13 76 -30 109 -30 19 0 34 -4 34 -8 0 -4 -55 -26 -122 -48 l-123 -40 -3 -147 c-2 -114 0 -147 10 -147 7 0 109 32 225 71 l213 71 0 149 c0 82 -2 149 -4 149 -3 0 -37 -12 -76 -26 -40 -14 -74 -23 -78 -20 -9 10 9 22 51 36 20 6 37 15 37 19 0 7 -79 42 -90 40 -3 0 -47 -15 -98 -32z m245 -239 c-1 -40 -3 -10 -3 67 0 77 1 110 3 73 2 -37 2 -100 0 -140z"/>
</g>
<g id="layer103" fill="#056112" stroke="none">
<path d="M362 477 c-51 -17 -89 -34 -85 -37 15 -13 76 -30 109 -30 61 0 35 -16 -88 -56 l-123 -40 -3 -147 c-2 -114 0 -147 10 -147 7 0 109 32 225 71 l213 71 0 150 c0 116 -3 149 -12 145 -96 -35 -140 -49 -145 -43 -10 10 7 22 50 36 20 6 37 15 37 20 0 6 -90 44 -94 39 -1 0 -43 -15 -94 -32z m245 -239 c-1 -40 -3 -8 -3 72 0 80 2 112 3 73 2 -40 2 -106 0 -145z m-102 143 c-12 -10 -134 -51 -149 -50 -6 0 25 13 69 29 93 33 92 33 80 21z m-15 -36 c-19 -7 -42 -13 -50 -13 -8 0 1 6 20 13 19 7 42 13 50 13 8 0 -1 -6 -20 -13z m15 -20 c-16 -8 -37 -14 -45 -14 -8 0 1 7 20 14 46 18 64 17 25 0z m15 -19 c-14 -7 -36 -16 -50 -20 -14 -3 -7 3 15 13 45 22 73 27 35 7z m-232 -1 c-2 -3 -26 -11 -52 -19 -52 -16 -54 -8 -3 11 33 12 64 17 55 8z m257 -13 c-13 -11 -102 -46 -92 -36 9 9 79 42 92 43 6 1 6 -2 0 -7z m-255 -16 c0 -2 -20 -11 -45 -19 -25 -9 -45 -12 -45 -8 0 5 15 13 33 19 35 11 57 14 57 8z m247 -17 c-30 -17 -87 -40 -87 -34 0 7 80 43 95 44 6 0 2 -4 -8 -10z m-272 -24 c-16 -8 -37 -14 -45 -14 -8 0 -1 6 15 14 17 7 37 13 45 13 8 0 2 -6 -15 -13z m292 9 c-13 -13 -107 -53 -107 -45 0 4 21 17 48 28 48 22 70 28 59 17z m13 -24 c0 -5 -5 -10 -10 -10 -6 0 -42 -16 -81 -35 -38 -19 -67 -30 -63 -24 4 8 124 69 152 78 1 1 2 -3 2 -9z m-290 -9 c-8 -5 -26 -12 -40 -15 l-25 -7 25 15 c14 9 32 15 40 15 l15 0 -15 -8z m260 -35 c-25 -13 -56 -26 -70 -30 -14 -3 2 7 35 23 71 35 100 40 35 7z m-250 10 c0 -2 -15 -9 -32 -15 l-33 -11 19 15 c18 14 46 20 46 11z m-1 -30 c-2 -2 -15 -9 -29 -15 l-25 -12 19 15 c16 13 49 24 35 12z m1 -36 c-8 -5 -22 -10 -30 -10 l-15 0 15 10 c8 5 22 10 30 10 l15 0 -15 -10z m35 -15 c-65 -31 -83 -31 -25 0 25 13 52 24 60 24 8 0 -7 -11 -35 -24z"/>
</g>
<g id="layer104" fill="#179232" stroke="none">
<path d="M362 477 c-51 -17 -89 -34 -85 -37 15 -13 76 -30 109 -30 61 0 35 -16 -88 -56 l-123 -40 -3 -147 c-2 -114 0 -147 10 -147 7 0 109 32 225 71 l213 71 0 150 c0 116 -3 149 -12 145 -96 -35 -140 -49 -145 -43 -10 10 7 22 50 36 20 6 37 15 37 20 0 6 -90 44 -94 39 -1 0 -43 -15 -94 -32z m245 -239 c-1 -40 -3 -8 -3 72 0 80 2 112 3 73 2 -40 2 -106 0 -145z m-64 64 c21 -55 37 -103 37 -109 0 -10 -218 -90 -232 -86 -4 2 -8 -2 -8 -8 0 -6 -6 -9 -12 -7 -7 3 -24 -1 -37 -8 -30 -16 -39 -10 -20 13 l14 17 -17 -7 c-10 -3 -18 -2 -18 3 0 10 40 26 55 21 6 -2 28 -3 49 -2 42 2 106 47 98 69 -2 7 2 12 10 12 10 0 9 3 -2 10 l-15 10 15 10 c11 7 11 10 2 10 -9 0 -12 12 -9 40 l4 40 -66 0 -66 1 85 34 c47 18 88 34 91 34 3 1 22 -43 42 -97z m-254 -67 l-2 -86 -19 -10 c-11 -6 -21 -9 -22 -7 -1 2 -8 16 -15 33 l-12 29 18 14 18 14 -22 -7 c-30 -9 -30 12 0 26 l22 9 -27 -5 c-28 -5 -39 9 -15 18 7 3 5 6 -5 6 -31 2 -20 16 25 33 23 8 46 16 50 17 4 0 7 -37 6 -84z"/>
</g>
<g id="layer105" fill="#40575c" stroke="none">
<path d="M362 477 c-51 -17 -89 -34 -85 -37 15 -13 76 -30 109 -30 61 0 35 -16 -88 -56 l-123 -40 -3 -147 c-2 -114 0 -147 10 -147 7 0 109 32 225 71 l213 71 0 150 c0 116 -3 149 -12 145 -96 -35 -140 -49 -145 -43 -10 10 7 22 50 36 20 6 37 15 37 20 0 6 -90 44 -94 39 -1 0 -43 -15 -94 -32z m245 -239 c-1 -40 -3 -8 -3 72 0 80 2 112 3 73 2 -40 2 -106 0 -145z m-64 64 c21 -55 37 -104 37 -110 0 -6 -24 -18 -52 -28 -29 -9 -100 -34 -157 -56 -57 -21 -104 -38 -106 -36 -7 11 -77 209 -74 212 6 4 88 36 94 36 3 0 5 -37 5 -82 0 -46 4 -88 8 -94 4 -6 28 -12 54 -12 l46 -1 27 34 26 35 -3 62 -3 63 -60 5 -60 5 85 32 c47 17 88 32 91 32 3 1 22 -43 42 -97z m-128 -79 l-19 -18 13 18 c11 14 11 20 0 35 l-13 17 19 -17 19 -18 -19 -17z"/>
</g>
<g id="layer106" fill="#337091" stroke="none">
<path d="M270 576 c-36 -12 -110 -37 -165 -56 l-99 -33 79 -25 80 -25 160 53 c88 29 164 56 168 60 10 9 -102 50 -134 49 -13 0 -53 -11 -89 -23z"/>
<path d="M358 472 c-43 -14 -78 -29 -78 -32 0 -11 73 -30 123 -31 33 -2 51 3 60 13 6 9 29 21 50 28 44 14 41 25 -11 40 -49 13 -54 13 -144 -18z"/>
<path d="M383 378 l-213 -70 0 -138 0 -138 16 -6 c9 -4 19 -4 22 -1 3 3 -1 5 -9 6 -8 0 4 7 25 15 22 8 49 12 60 8 17 -4 18 -3 6 6 -12 9 -9 10 15 6 23 -5 27 -4 15 5 -12 8 -8 9 15 5 23 -5 27 -4 15 5 -12 8 -8 9 15 5 23 -5 27 -4 15 5 -12 8 -8 9 15 5 23 -5 27 -4 15 5 -12 8 -8 9 15 5 23 -5 27 -4 15 5 -12 8 -10 10 10 6 14 -3 34 -1 45 3 14 6 15 9 5 10 -10 1 -9 4 5 10 28 12 43 12 25 -1 -12 -9 -12 -10 3 -5 10 3 24 6 30 6 8 0 7 3 -1 9 -10 6 -7 10 12 15 l26 6 0 140 c0 77 -1 140 -2 139 -2 0 -99 -32 -215 -71z m161 -76 c20 -54 36 -103 36 -109 0 -9 -310 -128 -315 -121 -8 13 -77 209 -74 212 6 4 88 36 94 36 3 0 5 -38 5 -84 0 -93 5 -103 61 -104 28 -1 43 6 68 32 l32 33 -3 64 -3 64 -60 5 -60 5 85 32 c47 17 88 32 91 32 4 1 23 -43 43 -97z m-129 -79 l-19 -18 13 18 c11 14 11 20 0 35 l-13 17 19 -17 19 -18 -19 -17z"/>
</g>
<g id="layer107" fill="#5798a8" stroke="none">
<path d="M376 372 l-198 -67 -2 -132 -3 -133 16 1 c9 0 30 6 48 12 l31 12 -39 104 c-21 57 -39 107 -39 110 0 4 17 13 38 20 20 8 43 16 50 18 9 4 12 -16 12 -81 l0 -85 18 -10 c30 -16 83 -4 114 26 l29 28 -3 65 -3 65 -60 5 -60 5 88 32 c88 32 107 34 107 9 0 -7 15 -50 34 -97 19 -46 32 -87 30 -90 -2 -4 -44 -21 -94 -39 -50 -18 -89 -34 -87 -37 2 -2 16 1 31 7 36 13 55 13 36 -1 -12 -9 -12 -10 3 -5 10 3 24 6 30 7 7 0 3 4 -8 8 -16 6 -8 12 40 28 l60 20 3 131 c2 102 0 132 -10 131 -7 0 -102 -31 -212 -67z m39 -149 l-19 -18 13 18 c11 14 11 20 0 35 l-13 17 19 -17 19 -18 -19 -17z"/>
<path d="M350 100 c-18 -12 -2 -12 25 0 13 6 15 9 5 9 -8 0 -22 -4 -30 -9z"/>
</g>
<g id="layer108" fill="#35abc1" stroke="none">
<path d="M378 372 l-198 -67 0 -132 c0 -73 4 -133 9 -133 21 0 71 23 71 33 0 7 -16 54 -35 105 -19 51 -35 96 -35 101 0 4 24 17 53 28 l52 19 0 -91 0 -90 50 -3 50 -3 28 29 28 29 -3 64 -3 64 -65 3 -65 4 94 34 c52 19 97 31 101 27 5 -7 30 -69 77 -199 2 -6 -15 -16 -38 -23 -22 -7 -39 -14 -37 -17 3 -2 22 2 44 9 l39 14 3 131 c2 102 0 132 -10 131 -7 0 -102 -31 -210 -67z m-8 -112 c0 -11 -2 -20 -4 -20 -2 0 -6 9 -9 20 -3 11 -1 20 4 20 5 0 9 -9 9 -20z m-34 -6 c-4 -9 -1 -23 5 -30 7 -8 7 -14 1 -14 -5 0 -15 7 -22 15 -10 12 -10 18 0 30 16 20 24 19 16 -1z m79 -31 l-19 -18 15 19 c11 15 11 20 2 23 -7 3 -13 10 -13 16 0 6 8 4 17 -6 l17 -17 -19 -17z"/>
</g>
<g id="layer109" fill="#33abf0" stroke="none">
<path d="M377 372 l-198 -67 2 -132 c0 -73 4 -133 8 -133 17 0 71 22 71 30 0 4 -16 50 -35 101 -19 52 -35 99 -35 105 0 6 24 20 53 31 l52 19 0 -91 0 -90 50 -3 50 -3 28 29 28 29 -3 64 -3 64 -64 5 -63 5 91 34 c52 19 96 30 100 25 6 -7 27 -61 78 -200 2 -6 -8 -15 -23 -18 -14 -4 -24 -9 -22 -12 3 -2 17 0 32 5 l26 11 0 130 c0 98 -3 130 -12 129 -7 0 -102 -31 -211 -67z m-1 -128 l7 -36 15 16 c13 12 13 18 2 30 -7 9 -8 16 -2 16 5 0 15 -7 23 -16 10 -13 8 -19 -14 -40 l-27 -25 -10 26 c-6 15 -10 34 -10 43 l0 16 -17 -16 c-14 -14 -14 -20 -3 -33 20 -24 6 -28 -15 -5 l-19 21 25 23 c29 29 36 25 45 -20z"/>
<path d="M442 133 c-24 -8 -41 -17 -39 -19 2 -3 16 0 31 6 35 13 56 13 36 0 -18 -12 -2 -12 25 0 l20 9 -20 0 c-17 1 -17 3 -5 11 21 14 2 11 -48 -7z"/>
</g>
<g id="layer110" fill="#c6c24b" stroke="none">
<path d="M535 420 c-27 -10 -44 -19 -37 -19 7 -1 19 -16 27 -35 17 -40 27 -48 49 -40 19 7 22 54 4 54 -8 0 -9 3 -3 8 9 6 21 53 13 51 -2 0 -25 -9 -53 -19z"/>
<path d="M310 345 l-125 -43 -2 -132 -2 -132 16 6 c8 3 26 9 39 12 13 3 24 10 24 14 0 4 -16 50 -35 101 -19 52 -35 99 -35 105 0 6 21 20 47 30 27 11 50 20 53 22 3 1 5 -40 5 -90 l0 -93 50 -3 50 -3 28 29 28 29 -3 64 -3 64 -70 5 -69 5 72 23 c40 13 72 25 72 28 0 7 -11 4 -140 -41z m66 -101 l7 -36 15 16 c13 12 13 18 2 30 -7 9 -8 16 -2 16 5 0 15 -7 23 -16 10 -13 8 -19 -14 -40 l-27 -25 -10 26 c-6 15 -10 34 -10 43 l0 16 -17 -16 c-14 -14 -14 -20 -3 -33 20 -24 6 -28 -15 -5 l-19 21 25 23 c29 29 36 25 45 -20z"/>
</g>
<g id="layer111" fill="#a3adae" stroke="none">
<path d="M170 543 l-164 -56 79 -25 80 -25 160 53 c88 29 164 56 168 60 10 9 -107 50 -137 49 -12 0 -95 -26 -186 -56z"/>
<path d="M358 472 c-43 -14 -78 -29 -78 -32 0 -11 73 -30 123 -31 33 -2 51 3 60 13 6 9 29 21 50 28 42 13 40 21 -12 39 -45 15 -53 14 -143 -17z"/>
<path d="M612 318 l-2 -147 -17 -10 c-10 -6 -13 -10 -8 -11 32 0 36 17 32 166 l-3 149 -2 -147z"/>
<path d="M310 345 l-125 -43 -3 -111 -3 -111 16 6 c8 3 15 13 15 22 0 12 3 13 11 5 16 -16 3 -43 -21 -43 -12 0 -20 -7 -20 -16 0 -11 5 -14 16 -10 9 3 27 9 40 12 13 3 24 10 24 14 0 4 -16 50 -35 101 -19 52 -35 99 -35 105 0 6 21 20 47 30 27 11 50 20 53 22 3 1 5 -40 5 -90 l0 -93 50 -3 50 -3 28 29 28 29 -3 64 -3 64 -70 5 -69 5 72 23 c40 13 72 25 72 28 0 7 -11 4 -140 -41z m66 -101 l7 -36 15 16 c13 12 13 18 2 30 -7 9 -8 16 -2 16 5 0 15 -7 23 -16 10 -13 8 -19 -14 -40 l-27 -25 -10 26 c-6 15 -10 34 -10 43 l0 16 -17 -16 c-14 -14 -14 -20 -3 -33 20 -24 6 -28 -15 -5 l-19 21 25 23 c29 29 36 25 45 -20z m-156 -104 c0 -5 -7 -10 -16 -10 -8 0 -12 5 -9 10 3 6 10 10 16 10 5 0 9 -4 9 -10z"/>
<path d="M530 140 c-18 -12 -2 -12 25 0 13 6 15 9 5 9 -8 0 -22 -4 -30 -9z"/>
<path d="M470 120 c-18 -12 -2 -12 25 0 13 6 15 9 5 9 -8 0 -22 -4 -30 -9z"/>
</g>
<g id="layer112" fill="#50bbf9" stroke="none">
<path d="M535 420 c-27 -10 -44 -19 -37 -19 7 -1 19 -16 27 -35 14 -34 41 -63 29 -31 -4 10 -2 15 7 13 9 -2 13 4 11 16 -2 10 2 23 10 27 10 7 9 9 -4 9 -10 0 -18 5 -18 10 0 6 7 10 15 10 8 0 15 5 15 10 0 6 -1 10 -2 9 -2 0 -25 -9 -53 -19z"/>
<path d="M310 345 l-125 -43 -3 -111 -3 -111 16 6 c8 3 15 13 15 22 0 12 3 13 11 5 16 -16 3 -43 -21 -43 -12 0 -20 -7 -20 -16 0 -11 5 -14 16 -10 9 3 27 9 40 12 13 3 24 10 24 14 0 4 -16 50 -35 101 -19 52 -35 99 -35 105 0 11 102 54 208 89 28 9 52 18 52 21 0 7 -12 4 -140 -41z m-90 -205 c0 -5 -7 -10 -16 -10 -8 0 -12 5 -9 10 3 6 10 10 16 10 5 0 9 -4 9 -10z"/>
</g>
<g id="layer113" fill="#b2bfbd" stroke="none">
<path d="M299 265 c-1 -30 -1 -64 -1 -75 0 -49 0 -50 52 -50 35 0 50 4 49 13 -3 27 2 37 21 37 21 0 22 5 22 75 0 19 0 40 -1 45 -1 6 -32 10 -71 10 l-70 0 -1 -55z m77 -21 l7 -36 15 16 c13 12 13 18 2 30 -7 9 -8 16 -2 16 5 0 15 -7 23 -16 10 -13 8 -19 -14 -40 l-27 -25 -10 26 c-6 15 -10 34 -10 43 l0 16 -17 -16 c-14 -14 -14 -20 -3 -33 20 -24 6 -28 -15 -5 l-19 21 25 23 c29 29 36 25 45 -20z"/>
</g>
<g id="layer114" fill="#bdc3c7" stroke="none">
<path d="M177 542 l-168 -57 45 -14 c25 -7 50 -10 57 -5 7 4 9 3 5 -4 -3 -6 6 -13 24 -17 22 -5 71 7 188 45 86 29 162 57 167 63 7 6 3 8 -12 4 -14 -3 -24 1 -27 10 -4 10 -15 14 -31 11 -15 -3 -22 -1 -18 5 4 6 -2 8 -15 5 -12 -4 -20 -2 -16 3 10 18 -33 7 -199 -49z"/>
<path d="M380 474 c-36 -12 -74 -26 -85 -29 l-20 -6 35 -14 c19 -7 58 -14 86 -14 44 -1 52 2 57 19 3 13 11 18 20 14 8 -3 30 1 48 9 l34 13 -49 17 c-27 9 -52 16 -55 16 -3 -1 -35 -12 -71 -25z"/>
<path d="M300 230 l0 -90 44 0 45 0 3 23 c2 14 11 23 26 25 l22 3 0 65 0 64 -70 0 -70 0 0 -90z m70 51 c0 -5 5 -22 10 -37 8 -21 14 -24 22 -16 9 9 9 15 0 24 -20 20 -13 32 8 13 25 -22 25 -26 0 -53 -28 -30 -37 -28 -44 13 -7 35 -19 44 -31 25 -4 -6 -1 -18 6 -26 19 -23 4 -27 -16 -4 l-18 20 23 25 c24 26 40 32 40 16z"/>
</g>
<g id="layer115" fill="#d0d4da" stroke="none">
<path d="M258 567 c-48 -17 -84 -35 -81 -41 3 -5 1 -6 -6 -2 -6 4 -43 -3 -82 -15 l-70 -22 28 -12 c15 -6 41 -15 58 -19 l30 -8 -23 21 c-13 11 -31 17 -40 15 -14 -5 -15 -4 -2 4 8 5 26 13 39 17 l24 7 -6 -21 c-3 -11 -1 -21 4 -21 5 0 9 6 9 14 0 16 27 29 41 20 5 -3 9 1 9 8 0 11 2 10 9 0 6 -11 10 -10 15 4 3 9 9 14 13 11 8 -9 45 12 38 22 -2 5 5 11 17 14 13 4 26 1 30 -6 5 -8 8 -7 8 6 0 11 8 17 21 17 17 0 20 -4 15 -22 -3 -13 -6 -28 -6 -34 0 -19 -38 -24 -43 -5 -4 12 -5 11 -6 -4 -1 -21 -55 -50 -72 -39 -5 3 -9 0 -9 -6 0 -6 -4 -8 -10 -5 -5 3 -10 1 -10 -4 0 -6 1 -11 3 -11 5 0 241 80 257 87 8 3 18 7 22 7 21 3 17 16 -5 14 -15 -1 -27 -5 -27 -9 0 -4 -9 -9 -20 -12 -23 -6 -27 8 -5 17 8 3 15 11 15 18 0 10 -2 10 -9 0 -7 -11 -9 -11 -14 2 -4 9 -12 16 -19 16 -9 0 -8 -3 2 -10 9 -6 10 -10 3 -10 -6 0 -18 7 -27 15 -18 19 -14 19 -118 -18z m113 -38 l-10 -24 0 21 c-1 11 2 24 6 27 12 12 14 0 4 -24z m25 -6 c-10 -10 -19 5 -10 18 6 11 8 11 12 0 2 -7 1 -15 -2 -18z"/>
<path d="M278 527 c-3 -19 -2 -25 4 -19 6 6 8 18 6 28 -3 14 -5 12 -10 -9z"/>
<path d="M350 463 l-75 -26 35 -13 c19 -7 59 -13 88 -13 l52 -1 0 21 c0 18 4 20 26 15 17 -5 23 -3 19 4 -3 5 1 13 10 16 13 6 14 8 3 15 -23 15 -81 8 -158 -18z"/>
<path d="M155 450 l-20 -9 28 0 c16 -1 26 3 22 9 -3 6 -7 10 -8 9 -1 0 -11 -4 -22 -9z"/>
<path d="M378 269 c7 -9 8 -20 4 -24 -4 -5 -1 -4 7 0 11 6 13 4 7 -11 -6 -15 -5 -17 6 -6 10 10 8 17 -12 35 -13 12 -19 15 -12 6z"/>
</g>


</svg>